<?xml version="1.0" standalone="no"?>
<!DOCTYPE svg PUBLIC "-//W3C//DTD SVG 20010904//EN"
 "http://www.w3.org/TR/2001/REC-SVG-20010904/DTD/svg10.dtd">
<svg version="1.0" xmlns="http://www.w3.org/2000/svg"
 width="200.000000pt" height="200.000000pt" viewBox="0 0 200.000000 200.000000"
 preserveAspectRatio="xMidYMid meet">

<g transform="translate(0.000000,200.000000) scale(0.100000,-0.100000)"
fill="#000000" stroke="none">
<path d="M891 1979 c-419 -49 -766 -368 -852 -784 -122 -589 313 -1153 911
-1182 300 -14 540 77 751 287 173 171 263 362 289 608 48 458 -257 907 -704
1037 -75 21 -257 47 -305 44 -9 -1 -49 -5 -90 -10z m345 -104 c150 -38 278
-110 398 -224 418 -401 360 -1088 -121 -1407 -232 -155 -534 -197 -791 -110
-252 86 -443 261 -549 501 -56 129 -68 193 -67 370 0 144 3 169 27 248 78 253
246 449 481 562 199 95 404 114 622 60z"/>
<path d="M830 1845 c-212 -43 -416 -179 -541 -361 -44 -65 -104 -197 -125
-279 -28 -107 -26 -324 4 -429 116 -405 478 -667 887 -642 296 17 563 184 706
441 125 224 143 499 50 740 -103 266 -356 476 -639 531 -90 17 -255 17 -342
-1z m348 -31 c325 -67 581 -326 647 -653 27 -129 17 -297 -23 -421 -51 -156
-142 -288 -269 -390 -292 -235 -691 -252 -1000 -42 -160 109 -285 286 -339
482 -28 101 -26 320 4 425 84 293 320 524 607 594 101 25 267 27 373 5z"/>
<path d="M913 1734 c-4 -12 2 -24 21 -39 17 -13 24 -25 18 -29 -6 -3 -13 -2
-17 4 -4 6 -11 8 -16 4 -15 -9 0 -24 26 -24 44 0 39 47 -8 63 -6 2 -7 9 -3 16
6 9 11 9 24 -1 13 -11 14 -11 10 2 -7 22 -47 25 -55 4z"/>
<path d="M996 1735 c-5 -15 18 -45 35 -45 5 0 9 -5 9 -11 0 -7 -10 -9 -25 -5
-19 5 -23 3 -19 -9 8 -21 50 -19 59 2 4 12 -2 24 -20 39 -19 15 -24 24 -15 29
7 4 16 1 21 -6 7 -11 9 -10 9 4 0 21 -45 24 -54 2z"/>
<path d="M1092 1737 c-34 -40 -16 -106 26 -93 31 10 42 74 17 93 -23 16 -30
16 -43 0z m36 -39 c-3 -37 -38 -55 -38 -20 0 31 11 52 27 52 10 0 13 -9 11
-32z"/>
<path d="M835 1730 c-5 -8 -2 -33 11 -81 5 -18 54 -15 54 3 0 6 -7 8 -15 5
-22 -9 -29 13 -9 28 18 14 18 14 -3 15 -13 0 -23 4 -23 8 0 5 10 14 23 20 22
11 22 11 -5 11 -15 1 -29 -3 -33 -9z"/>
<path d="M783 1719 c-26 -10 -27 -11 -13 -61 12 -43 34 -63 28 -27 -2 13 4 29
12 36 13 11 12 12 -7 13 -27 0 -30 15 -6 29 24 13 13 21 -14 10z"/>
<path d="M1171 1699 c-6 -18 -11 -41 -11 -53 1 -21 1 -21 16 -1 14 19 15 19
20 -3 4 -12 10 -19 15 -16 5 3 7 9 4 14 -3 5 1 20 10 34 14 22 14 25 0 40 -25
24 -42 19 -54 -15z m41 -4 c0 -5 -5 -11 -11 -13 -6 -2 -11 4 -11 13 0 9 5 15
11 13 6 -2 11 -8 11 -13z"/>
<path d="M687 1683 c-13 -12 -7 -62 9 -77 17 -18 32 -20 53 -7 15 10 8 55 -11
78 -11 14 -40 17 -51 6z m41 -25 c17 -17 15 -48 -3 -48 -13 0 -35 36 -35 56 0
9 27 3 38 -8z"/>
<path d="M1281 1648 c-20 -46 -18 -64 4 -34 18 24 37 11 29 -20 -9 -36 3 -29
26 16 23 45 27 75 6 48 -20 -27 -39 -23 -34 7 8 40 -11 29 -31 -17z"/>
<path d="M606 1637 c-18 -13 -17 -15 8 -55 30 -48 41 -54 32 -16 -6 22 -5 24
13 15 29 -16 36 -13 19 7 -9 9 -18 26 -20 37 -4 25 -27 30 -52 12z m34 -22 c0
-8 -4 -15 -10 -15 -5 0 -10 7 -10 15 0 8 5 15 10 15 6 0 10 -7 10 -15z"/>
<path d="M1371 1616 c-28 -30 -25 -70 5 -74 14 -2 29 7 43 24 26 33 27 50 2
64 -26 13 -24 14 -50 -14z m44 -6 c9 -14 -13 -50 -30 -50 -18 0 -19 14 -5 41
12 21 25 25 35 9z"/>
<path d="M530 1585 c-10 -13 -9 -21 11 -50 13 -19 30 -35 38 -35 11 0 11 3 0
16 -10 12 -10 17 0 23 7 5 11 19 9 32 -4 29 -39 37 -58 14z m41 -20 c-1 -15
-24 -12 -29 3 -3 9 2 13 12 10 10 -1 17 -7 17 -13z"/>
<path d="M1460 1582 c0 -4 -12 -20 -26 -35 -28 -30 -26 -49 2 -26 16 13 17 11
10 -13 -7 -32 9 -39 19 -8 3 11 13 20 21 20 23 0 28 29 9 50 -18 20 -35 26
-35 12z m25 -42 c-5 -8 -11 -8 -17 -2 -6 6 -7 16 -3 22 5 8 11 8 17 2 6 -6 7
-16 3 -22z"/>
<path d="M894 1560 c-60 -13 -157 -54 -206 -88 -64 -44 -161 -151 -187 -208
-53 -111 -63 -155 -63 -264 0 -173 58 -308 182 -422 107 -99 240 -150 389
-151 154 -1 281 53 397 168 213 211 230 530 41 766 -56 70 -176 152 -265 180
-74 23 -222 33 -288 19z m235 -35 c156 -37 290 -144 362 -290 47 -96 63 -175
56 -275 -17 -224 -160 -406 -377 -481 -99 -34 -239 -31 -340 6 -187 69 -316
215 -356 404 -17 84 -17 129 1 216 21 100 67 186 141 265 132 140 327 199 513
155z"/>
<path d="M868 1508 l-38 -10 0 -234 0 -235 -107 3 -108 3 -1 148 c-1 81 -3
150 -6 152 -2 2 -18 -18 -36 -45 l-32 -49 0 -242 0 -242 31 -49 c17 -26 34
-48 38 -48 3 0 6 66 6 146 l0 146 105 0 105 0 3 -225 c2 -223 3 -225 25 -231
48 -13 47 -20 47 227 l0 234 63 -2 62 -2 3 -242 c2 -216 4 -242 18 -237 9 3
24 6 35 6 18 0 19 10 19 238 l0 237 187 -2 c123 -1 189 -6 191 -13 2 -6 -6
-41 -17 -79 -34 -111 -132 -226 -233 -271 -23 -11 -25 -15 -16 -36 14 -29 18
-29 69 -4 131 67 249 267 249 422 l0 58 -145 0 -146 0 7 38 c11 64 61 160 113
215 49 52 49 52 31 75 -10 12 -23 22 -28 22 -19 0 -118 -119 -144 -172 -15
-29 -32 -81 -39 -116 -13 -61 -14 -62 -46 -62 l-33 0 0 245 0 245 -97 -1 c-54
-1 -115 -6 -135 -11z m160 -250 l2 -228 -65 0 -65 0 0 230 0 231 63 -3 62 -3
3 -227z"/>
<path d="M446 1505 c-19 -19 -11 -45 21 -69 19 -14 30 -16 42 -9 18 12 28 53
12 53 -6 0 -11 -9 -11 -20 0 -25 -22 -26 -43 -2 -22 24 -21 31 5 41 18 6 19 9
5 14 -9 3 -23 0 -31 -8z"/>
<path d="M1540 1504 c-19 -8 -43 -17 -52 -20 -24 -8 -23 -20 1 -27 11 -2 21
-15 23 -28 3 -21 7 -17 32 28 16 29 36 54 45 56 12 4 13 5 1 5 -8 0 -31 -6
-50 -14z m0 -28 c0 -3 -4 -8 -10 -11 -5 -3 -10 -1 -10 4 0 6 5 11 10 11 6 0
10 -2 10 -4z"/>
<path d="M392 1438 c-19 -19 -14 -31 23 -55 42 -28 47 -28 63 -3 7 11 8 20 3
20 -6 0 -13 -5 -16 -10 -11 -17 -26 0 -20 21 6 18 5 19 -14 8 -24 -16 -39 -5
-21 16 15 18 -1 20 -18 3z"/>
<path d="M1553 1426 c-23 -20 -26 -28 -17 -43 13 -20 44 -30 44 -14 0 6 -7 11
-15 11 -20 0 -19 13 3 33 26 23 42 21 42 -5 0 -16 3 -19 11 -11 16 16 1 53
-21 53 -10 0 -32 -11 -47 -24z"/>
<path d="M345 1361 c-16 -31 -16 -33 0 -28 9 4 29 0 45 -8 33 -17 40 -18 40
-7 0 5 -11 14 -25 20 -14 7 -29 22 -34 34 -8 22 -9 21 -26 -11z"/>
<path d="M1613 1363 c-37 -21 -56 -43 -38 -43 13 0 85 51 85 60 0 6 -1 10 -2
9 -2 -1 -22 -12 -45 -26z"/>
<path d="M1628 1324 c-19 -10 -28 -23 -28 -39 0 -32 33 -42 66 -20 34 22 41
45 19 61 -23 17 -23 17 -57 -2z m49 -21 c6 -16 -35 -36 -55 -28 -15 6 -14 9 7
26 25 20 42 21 48 2z"/>
<path d="M310 1289 c-13 -24 -15 -21 27 -43 43 -21 60 -20 68 5 8 25 -2 39
-11 15 -9 -24 -37 -21 -29 4 4 11 2 20 -4 20 -6 0 -11 -4 -11 -10 0 -5 -7 -10
-16 -10 -11 0 -14 6 -9 20 8 26 -1 26 -15 -1z"/>
<path d="M1661 986 c-16 -20 -3 -46 24 -46 13 0 26 7 29 16 7 19 -10 44 -29
44 -7 0 -18 -6 -24 -14z"/>
<path d="M292 968 c-16 -16 -15 -33 4 -48 22 -19 54 12 38 37 -14 22 -27 26
-42 11z"/>
<path d="M1520 622 c0 -4 18 -26 41 -47 33 -32 40 -36 39 -20 -4 35 0 45 15
45 31 0 14 18 -22 24 -51 8 -73 8 -73 -2z m60 -22 c0 -5 -4 -10 -9 -10 -6 0
-13 5 -16 10 -3 6 1 10 9 10 9 0 16 -4 16 -10z"/>
<path d="M418 613 c-33 -5 -37 -18 -8 -26 17 -4 20 -10 14 -34 -7 -28 -6 -28
35 12 22 21 41 43 41 47 0 8 -32 8 -82 1z m47 -23 c-3 -5 -10 -10 -16 -10 -5
0 -9 5 -9 10 0 6 7 10 16 10 8 0 12 -4 9 -10z"/>
<path d="M483 544 c-39 -31 -43 -61 -9 -70 24 -6 86 29 86 48 0 13 -13 9 -40
-12 -51 -40 -69 -18 -20 23 51 43 35 53 -17 11z"/>
<path d="M1476 551 c-16 -18 -15 -20 21 -50 21 -17 41 -31 45 -31 12 0 10 14
-4 28 -9 9 -6 12 15 12 15 0 27 5 27 10 0 6 -8 10 -18 10 -9 0 -23 9 -30 20
-15 25 -34 25 -56 1z m44 -17 c0 -17 -22 -14 -28 4 -2 7 3 12 12 12 9 0 16 -7
16 -16z"/>
<path d="M1440 501 c0 -14 74 -73 78 -62 2 6 -12 24 -30 40 -34 31 -48 38 -48
22z"/>
<path d="M536 471 c-30 -31 -29 -64 1 -75 20 -8 48 18 38 34 -6 9 -10 8 -17
-4 -9 -16 -28 -13 -28 4 0 11 41 50 52 50 4 0 8 -9 8 -20 0 -11 5 -20 10 -20
18 0 11 39 -9 50 -26 13 -23 14 -55 -19z"/>
<path d="M1403 475 c-18 -19 -17 -23 13 -62 29 -38 44 -41 69 -13 20 22 14 26
-15 10 -24 -13 -37 5 -19 26 11 13 9 14 -14 9 -27 -7 -38 7 -17 20 12 7 13 25
3 25 -5 -1 -14 -7 -20 -15z"/>
<path d="M607 417 c-32 -43 -33 -49 -7 -72 19 -17 21 -17 54 20 20 21 33 42
29 48 -3 5 -20 -7 -38 -28 -37 -45 -59 -32 -25 15 31 44 19 59 -13 17z"/>
<path d="M1360 429 c0 -6 5 -19 11 -31 15 -28 6 -32 -24 -8 -14 11 -28 17 -31
12 -7 -12 76 -74 86 -64 10 10 -20 102 -33 102 -5 0 -9 -5 -9 -11z"/>
<path d="M686 373 c-4 -9 -2 -21 4 -27 5 -5 10 -19 10 -30 0 -20 -2 -19 -21 4
l-20 25 3 -25 c2 -18 10 -26 27 -28 32 -5 43 16 25 49 -9 18 -10 30 -4 34 6 3
13 -1 16 -9 8 -20 24 -21 24 -2 0 27 -54 35 -64 9z"/>
<path d="M1270 374 c0 -14 46 -84 56 -84 5 0 19 7 30 16 18 15 18 15 -6 10
-22 -4 -29 0 -44 29 -17 30 -36 46 -36 29z"/>
<path d="M760 362 c0 -6 5 -12 12 -14 9 -3 8 -15 -4 -46 -9 -23 -12 -44 -7
-47 5 -4 16 12 25 34 9 23 22 41 30 41 20 0 17 17 -3 23 -10 2 -26 8 -35 12
-10 4 -18 3 -18 -3z"/>
<path d="M1237 364 c-7 -8 34 -94 45 -94 11 0 11 2 -12 54 -20 47 -22 50 -33
40z"/>
<path d="M1171 333 c-12 -23 -3 -39 23 -44 11 -2 21 -10 24 -18 3 -10 -2 -11
-18 -6 -16 5 -21 4 -18 -6 7 -20 43 -23 58 -4 16 19 1 40 -36 49 -25 7 -24 29
1 24 8 -2 15 2 17 7 6 19 -40 17 -51 -2z"/>
<path d="M843 318 c-34 -42 -21 -88 23 -88 26 0 38 28 32 71 -3 27 -39 38 -55
17z m35 -35 c-3 -37 -24 -56 -33 -31 -7 19 11 68 25 68 7 0 10 -15 8 -37z"/>
<path d="M960 265 c0 -52 1 -55 25 -55 25 0 45 29 45 65 0 20 -28 45 -51 45
-16 0 -19 -7 -19 -55z m44 19 c8 -20 -2 -54 -15 -54 -5 0 -9 16 -9 35 0 37 13
47 24 19z"/>
<path d="M1056 283 c-8 -54 -7 -73 4 -73 6 0 10 7 10 15 0 8 7 15 15 15 8 0
15 -4 15 -10 0 -5 6 -10 14 -10 11 0 10 10 -7 50 -25 60 -42 64 -51 13z m34
-18 c0 -8 -4 -15 -10 -15 -5 0 -10 7 -10 15 0 8 5 15 10 15 6 0 10 -7 10 -15z"/>
</g>
</svg>
